<svg xmlns="http://www.w3.org/2000/svg" width="430" height="132" viewBox="0 0 430 132">
<g>
<path d="M 63.80 49.80 C62.61,50.99 47.91,51.41 45.24,50.33 C44.54,50.05 43.51,48.96 42.95,47.90 C42.12,46.36 42.75,44.57 46.18,38.74 C50.87,30.76 51.56,30.04 54.55,30.02 C56.06,30.00 57.71,31.95 60.80,37.38 C65.17,45.06 65.83,47.77 63.80,49.80 ZM 91.80 49.80 C91.06,50.54 87.45,51.00 82.41,51.00 C75.92,51.00 73.75,50.61 71.93,49.14 L 69.64 47.29 L 74.07 39.49 C80.98,27.31 82.59,27.15 89.13,37.97 C93.14,44.60 93.85,47.75 91.80,49.80 ZM 77.75 25.45 C74.99,26.29 69.19,26.53 63.50,26.03 C58.01,25.54 57.48,25.29 57.22,23.00 C57.04,21.43 58.54,17.88 61.24,13.50 C64.54,8.13 66.14,6.43 68.11,6.20 C70.36,5.94 71.21,6.81 74.84,13.08 C79.02,20.31 80.07,24.74 77.75,25.45 ZM 94.19 73.29 C95.46,73.53 94.23,73.79 91.45,73.86 C86.40,74.00 84.00,72.82 84.00,70.21 C84.00,67.76 91.15,55.95 93.62,54.33 C96.77,52.26 97.83,53.20 102.99,62.60 C106.31,68.66 106.87,70.38 106.00,72.01 C105.18,73.54 103.95,73.98 100.71,73.92 C98.40,73.88 97.08,73.61 97.79,73.32 C98.78,72.93 98.81,72.48 97.92,71.40 C96.43,69.61 94.56,69.62 93.06,71.42 C92.11,72.57 92.32,72.93 94.19,73.29 ZM 74.80 62.03 C77.91,67.81 78.84,70.46 78.19,71.63 C77.56,72.74 77.06,72.90 76.58,72.13 C76.20,71.51 76.25,70.99 76.69,70.97 C77.14,70.95 76.70,70.48 75.73,69.91 C74.76,69.34 73.05,69.17 71.94,69.52 C70.82,69.87 67.64,69.58 64.87,68.87 C59.98,67.62 59.77,67.65 57.94,70.04 C54.30,74.77 55.76,69.18 60.20,61.39 C66.53,50.25 68.50,50.34 74.80,62.03 ZM 38.47 66.01 C34.41,66.00 31.65,66.55 30.02,67.70 L 27.59 69.40 L 29.99 65.45 C36.71,54.36 37.01,54.00 39.49,54.00 C40.98,54.00 42.49,54.89 43.30,56.25 C44.04,57.49 46.05,60.86 47.78,63.75 C49.51,66.64 50.76,69.00 50.57,69.00 C50.38,69.00 48.94,68.33 47.36,67.51 C45.75,66.67 41.86,66.01 38.47,66.01 ZM 346.31 122.52 C346.73,125.14 346.52,126.00 345.44,126.00 C344.32,126.00 344.00,124.42 344.00,119.00 C344.00,115.00 344.43,112.00 345.00,112.00 C345.55,112.00 346.00,113.11 346.00,114.47 C346.00,116.25 346.42,116.78 347.50,116.36 C348.33,116.05 349.00,116.24 349.00,116.79 C349.00,117.34 348.27,118.07 347.37,118.41 C346.13,118.89 345.88,119.87 346.31,122.52 ZM 84.50 58.50 C84.50,60.78 84.00,61.57 82.41,61.80 C81.26,61.96 79.72,61.36 78.97,60.46 C77.15,58.28 78.91,55.50 82.11,55.50 C84.10,55.50 84.50,56.00 84.50,58.50 ZM 259.37 121.25 C259.50,124.53 259.16,126.00 258.28,126.00 C257.36,126.00 257.00,124.01 257.00,119.00 C257.00,115.00 257.43,112.00 258.00,112.00 C258.55,112.00 259.04,113.01 259.09,114.25 C259.14,115.49 259.27,118.64 259.37,121.25 ZM 385.25 124.15 C384.17,128.27 383.00,125.59 383.00,119.00 C383.00,115.15 383.39,112.00 383.87,112.00 C384.89,112.00 385.96,121.43 385.25,124.15 ZM 298.18 124.25 C297.21,128.37 296.00,125.47 296.00,119.00 C296.00,115.15 296.41,112.00 296.90,112.00 C297.88,112.00 298.86,121.39 298.18,124.25 ZM 39.58 122.00 C37.70,122.00 35.96,122.56 35.70,123.25 C35.12,124.79 34.13,122.39 34.25,119.75 C34.34,117.94 36.00,117.23 36.00,119.00 C36.00,119.55 37.58,120.00 39.50,120.00 C41.42,120.00 43.00,120.45 43.00,121.00 C43.00,121.55 41.46,122.00 39.58,122.00 ZM 56.00 57.38 C56.00,59.18 53.84,60.85 52.25,60.28 C51.56,60.04 51.00,58.97 51.00,57.92 C51.00,56.54 51.70,56.00 53.50,56.00 C54.96,56.00 56.00,56.57 56.00,57.38 ZM 368.00 121.00 C368.00,123.75 367.55,126.00 367.00,126.00 C366.45,126.00 366.00,123.75 366.00,121.00 C366.00,118.25 366.45,116.00 367.00,116.00 C367.55,116.00 368.00,118.25 368.00,121.00 ZM 228.50 121.00 C228.88,121.62 227.18,122.00 224.06,122.00 C221.28,122.00 219.00,121.55 219.00,121.00 C219.00,120.45 221.00,120.00 223.44,120.00 C225.88,120.00 228.16,120.45 228.50,121.00 ZM 150.00 122.94 C150.00,124.62 149.55,126.00 149.00,126.00 C148.45,126.00 148.00,124.90 148.00,123.56 C148.00,122.22 148.45,120.84 149.00,120.50 C149.58,120.14 150.00,121.16 150.00,122.94 Z" fill="rgb(222,134,82)"/>
<path d="M 171.00 97.25 C168.09,98.70 164.69,99.00 150.75,99.00 L 134.00 99.00 L 134.00 61.00 L 151.25 61.00 C166.36,61.01 168.88,61.24 171.58,62.89 C176.06,65.62 177.66,70.10 176.15,75.74 C175.21,79.25 175.22,80.96 176.18,83.63 C178.03,88.73 175.67,94.91 171.00,97.25 ZM 191.80 93.75 C191.53,98.00 191.23,98.53 188.96,98.80 C187.57,98.96 186.10,98.77 185.71,98.38 C185.32,97.99 185.00,89.42 185.00,79.33 L 185.00 61.00 L 201.10 61.00 C219.15,61.00 222.77,61.93 226.11,67.42 C228.34,71.08 228.58,77.98 226.60,81.81 C225.83,83.30 223.31,85.58 221.00,86.88 L 216.81 89.23 L 220.93 93.43 C223.19,95.73 224.73,97.93 224.36,98.31 C223.98,98.69 221.97,99.00 219.89,99.00 C216.68,99.00 215.37,98.25 211.19,94.00 L 206.27 89.00 L 192.11 89.00 ZM 296.39 52.42 C296.00,53.43 294.56,54.00 292.39,54.00 L 289.00 54.00 L 289.00 35.50 C289.00,21.39 289.30,16.99 290.25,16.95 C306.96,16.32 322.04,16.59 324.60,17.58 C335.13,21.63 334.73,38.56 324.00,43.00 L 320.87 44.30 L 324.96 48.46 C327.21,50.75 328.73,52.93 328.36,53.31 C327.98,53.69 326.04,54.00 324.05,54.00 C321.02,54.00 319.61,53.17 315.50,49.00 L 310.58 44.00 L 297.00 44.00 L 297.00 47.42 C297.00,49.30 296.73,51.55 296.39,52.42 ZM 199.81 49.25 C197.79,52.93 196.97,53.54 193.74,53.81 C191.40,54.00 190.00,53.69 190.00,52.97 C190.00,52.33 194.05,44.04 199.00,34.54 L 208.01 17.28 L 213.23 16.66 C216.09,16.32 218.74,16.37 219.11,16.77 C220.36,18.12 237.01,50.43 237.26,51.97 C237.43,53.05 236.48,53.59 234.00,53.79 C230.77,54.07 230.31,53.74 228.02,49.54 L 225.54 45.00 L 202.15 45.00 ZM 140.78 40.25 L 140.50 53.50 L 134.00 54.13 L 134.00 17.00 L 136.42 17.00 C137.75,17.00 139.54,16.73 140.40,16.40 C141.43,16.00 144.10,17.81 148.23,21.69 C149.03,22.43 149.75,23.12 150.41,23.75 C154.28,27.42 156.08,29.14 157.83,29.08 C159.65,29.01 161.40,27.02 165.38,23.31 C172.10,17.03 173.16,16.40 176.89,16.45 L 180.99 16.50 L 181.00 54.13 L 174.50 53.50 L 174.22 40.25 C174.07,32.96 173.55,27.00 173.07,27.00 C172.59,27.00 169.11,29.91 165.35,33.46 C161.58,37.02 158.04,39.94 157.47,39.96 C156.91,39.98 153.54,37.08 150.00,33.50 C146.46,29.92 143.00,27.00 142.31,27.00 C141.39,27.00 140.99,30.47 140.78,40.25 ZM 390.84 97.08 C387.60,98.73 384.89,99.00 371.21,99.00 C362.48,99.00 355.03,98.70 354.67,98.33 C354.30,97.97 354.00,96.62 354.00,95.33 C354.00,95.19 354.00,95.05 353.99,94.93 C353.98,94.44 353.98,94.07 354.13,93.78 C354.66,92.77 357.15,92.80 368.29,92.91 C369.14,92.92 370.05,92.92 371.00,92.93 C385.80,93.07 389.25,92.17 389.84,88.03 C390.44,83.84 387.84,83.00 374.21,83.00 C360.73,83.00 357.21,81.95 355.09,77.29 C353.51,73.83 353.75,68.79 355.63,66.12 C358.58,61.91 362.73,61.00 379.03,61.00 L 394.13 61.00 L 393.50 67.50 L 378.57 67.78 C363.35,68.06 361.00,68.63 361.00,72.07 C361.00,75.96 364.66,77.00 378.30,77.00 L 391.15 77.00 L 394.08 79.92 C399.23,85.07 397.61,93.63 390.84,97.08 ZM 311.82 94.00 C311.52,98.27 311.33,98.52 308.25,98.81 L 305.00 99.13 L 305.00 61.00 L 312.00 61.00 L 312.00 69.50 C312.00,74.18 312.25,78.00 312.55,78.00 C312.85,78.00 317.39,74.18 322.64,69.50 L 332.19 61.00 L 337.85 61.03 L 343.50 61.06 L 340.00 64.16 C331.72,71.48 327.94,75.31 328.21,76.09 C328.37,76.54 332.21,81.43 336.75,86.95 C341.29,92.46 345.00,97.43 345.00,97.99 C345.00,98.54 343.23,99.00 341.07,99.00 C337.35,99.00 336.72,98.51 329.49,89.99 L 321.84 80.98 L 319.17 82.89 C313.95,86.63 312.14,89.36 311.82,94.00 ZM 296.81 95.85 L 296.50 98.50 L 283.00 98.72 C267.42,98.97 263.21,97.94 258.32,92.63 C254.23,88.19 252.54,82.58 253.45,76.47 C254.03,72.64 255.06,70.85 258.87,67.04 C264.47,61.44 266.20,61.03 284.31,61.01 L 297.13 61.00 L 296.50 67.50 L 268.08 68.05 L 264.54 71.40 C261.61,74.16 261.00,75.44 261.00,78.82 C261.00,84.39 262.68,87.64 266.92,90.27 C270.06,92.22 272.15,92.54 283.81,92.85 L 297.11 93.20 ZM 371.56 48.25 C367.13,53.70 366.66,54.00 362.41,54.00 C357.00,54.00 357.07,53.78 365.92,43.31 C369.26,39.35 372.00,35.61 372.00,35.00 C372.00,34.39 369.08,30.42 365.51,26.19 C361.94,21.96 359.02,18.21 359.01,17.87 C359.00,17.52 359.86,17.01 360.90,16.74 C365.01,15.66 367.90,17.25 372.54,23.16 L 377.22 29.11 L 380.86 24.85 C382.86,22.51 385.17,19.84 386.00,18.90 C387.58,17.11 396.00,15.57 396.00,17.07 C396.00,17.55 393.08,21.57 389.50,26.00 C385.92,30.43 383.00,34.45 383.00,34.94 C383.00,35.43 385.92,39.54 389.50,44.08 C393.08,48.61 396.00,52.70 396.00,53.16 C396.00,53.62 394.27,54.00 392.15,54.00 C388.69,54.00 387.77,53.39 383.04,47.95 C380.15,44.63 377.43,42.04 377.00,42.20 C376.57,42.37 374.12,45.09 371.56,48.25 ZM 263.00 23.00 L 263.00 54.00 L 256.00 54.00 L 256.00 23.00 L 238.00 23.00 L 238.00 17.00 L 247.50 16.88 C252.73,16.81 258.58,16.75 260.50,16.75 C262.42,16.75 267.83,16.81 272.50,16.88 L 281.00 17.00 L 281.00 23.00 ZM 192.67 82.33 C193.61,83.28 208.63,83.08 213.94,82.06 C216.38,81.58 218.97,80.39 219.69,79.41 C221.45,77.00 221.34,72.93 219.44,70.22 C217.97,68.12 217.18,68.00 204.94,68.00 L 192.00 68.00 L 192.00 74.83 C192.00,78.59 192.30,81.97 192.67,82.33 ZM 298.25 37.34 C298.94,37.62 304.00,37.88 309.50,37.92 C318.45,37.98 319.78,37.76 322.21,35.75 C326.00,32.60 326.63,29.07 323.98,25.71 C321.87,23.02 321.75,23.00 309.43,23.00 L 297.00 23.00 L 297.00 29.92 C297.00,34.51 297.42,37.00 298.25,37.34 ZM 61.72 98.38 C57.82,99.42 47.59,99.01 45.01,97.71 C43.64,97.02 42.38,95.73 42.21,94.85 C42.04,93.96 43.86,89.92 46.25,85.87 C50.07,79.39 50.94,78.50 53.51,78.50 C56.10,78.50 56.90,79.35 60.77,86.26 C65.40,94.52 65.62,97.33 61.72,98.38 ZM 119.39 97.47 C118.26,98.60 115.87,98.97 110.18,98.88 C100.42,98.74 99.13,98.37 98.42,95.54 C97.53,92.00 105.94,78.60 109.31,78.19 C111.49,77.93 112.32,78.75 115.36,84.19 C120.60,93.60 121.22,95.63 119.39,97.47 ZM 90.98 97.02 C89.39,98.61 87.65,99.00 82.25,98.99 C74.72,98.97 70.64,97.44 70.22,94.47 C70.07,93.39 71.91,89.35 74.30,85.50 C80.42,75.68 82.42,75.56 87.68,84.69 C93.12,94.14 93.28,94.72 90.98,97.02 ZM 36.05 96.44 C34.42,98.41 17.11,98.71 15.20,96.80 C13.34,94.94 13.69,93.70 18.32,85.84 C21.74,80.04 23.20,78.43 25.27,78.19 C28.09,77.85 30.55,80.90 35.19,90.44 C36.98,94.13 37.12,95.15 36.05,96.44 ZM 245.77 80.25 L 245.50 98.50 L 242.46 98.80 C240.79,98.96 239.11,98.77 238.71,98.38 C238.32,97.99 238.00,89.64 238.00,79.83 L 238.00 62.00 L 246.05 62.00 ZM 350.05 17.00 L 349.50 53.50 L 343.00 54.13 L 343.00 17.00 ZM 141.67 76.33 C142.51,77.17 164.27,77.22 166.45,76.38 C169.00,75.40 170.24,72.31 169.00,70.00 C168.01,68.15 166.91,68.00 154.46,68.00 L 141.00 68.00 L 141.00 71.83 C141.00,73.94 141.30,75.97 141.67,76.33 ZM 143.25 92.29 C147.92,93.19 162.82,92.96 165.75,91.94 C169.05,90.79 170.28,88.26 168.82,85.64 C168.04,84.25 165.88,84.00 154.45,84.00 L 141.00 84.00 L 141.00 87.93 C141.00,91.21 141.37,91.93 143.25,92.29 ZM 38.47 66.01 C41.86,66.01 45.75,66.67 47.36,67.51 C48.94,68.33 50.38,69.00 50.57,69.00 C50.59,69.00 50.59,68.99 50.59,68.96 C51.16,70.42 50.89,70.95 50.30,71.89 C49.51,73.15 47.22,73.56 39.64,73.79 C30.24,74.07 29.96,74.01 28.87,71.62 C28.43,70.64 28.27,69.86 28.59,68.70 L 30.02 67.70 C31.65,66.55 34.41,66.00 38.47,66.01 ZM 207.37 35.67 C206.80,37.93 206.97,38.00 213.33,38.00 C216.93,38.00 220.16,37.55 220.50,37.00 C221.18,35.90 215.18,24.00 213.95,24.00 C212.97,24.00 208.15,32.55 207.37,35.67 ZM 322.78 125.44 C321.56,126.30 320.32,126.93 320.03,126.85 C319.74,126.77 318.26,126.51 316.75,126.28 C314.05,125.88 314.00,125.73 314.00,118.93 C314.00,114.98 314.43,112.00 315.00,112.00 C315.55,112.00 316.00,113.05 316.00,114.33 C316.00,116.37 316.39,116.60 319.16,116.19 C324.62,115.39 327.31,122.27 322.78,125.44 ZM 78.00 71.99 C77.05,73.78 75.92,74.00 67.66,74.00 C60.63,74.00 57.12,73.69 56.33,71.72 C56.66,71.54 57.19,71.01 57.94,70.04 C59.77,67.65 59.98,67.62 64.87,68.87 C67.64,69.58 70.82,69.87 71.94,69.52 C73.05,69.17 74.76,69.34 75.73,69.91 C76.70,70.48 77.14,70.95 76.69,70.97 C76.25,70.99 76.20,71.51 76.58,72.13 C77.04,72.88 77.54,72.75 78.13,71.72 C78.10,71.81 78.05,71.90 78.00,71.99 ZM 98.95 85.56 C98.29,86.35 96.78,87.00 95.58,87.00 C90.65,87.00 89.14,80.81 93.58,78.78 C98.07,76.74 102.08,81.79 98.95,85.56 ZM 171.14 125.09 C169.84,126.14 168.49,126.93 168.14,126.85 C167.79,126.77 166.26,126.51 164.75,126.28 C162.05,125.88 162.00,125.73 162.00,118.93 C162.00,114.98 162.43,112.00 163.00,112.00 C163.55,112.00 164.00,113.06 164.00,114.36 C164.00,116.43 164.45,116.71 167.62,116.61 C170.02,116.54 171.60,117.07 172.33,118.20 C174.05,120.87 172.26,121.55 170.21,119.01 C168.64,117.07 168.04,116.91 166.18,117.90 C164.98,118.54 164.00,119.86 164.00,120.84 C164.00,124.73 169.05,126.51 170.88,123.26 C171.41,122.30 172.22,121.89 172.68,122.34 C173.13,122.80 172.44,124.03 171.14,125.09 ZM 317.24 123.84 C319.30,125.90 322.46,124.81 322.80,121.91 C323.20,118.46 320.83,116.48 318.06,117.97 C315.75,119.20 315.36,121.96 317.24,123.84 ZM 210.50 118.50 C207.77,118.50 207.45,118.86 206.89,122.50 C206.56,124.70 206.22,125.54 206.14,124.38 C206.06,123.21 205.73,120.92 205.41,119.29 L 204.82 116.33 L 209.66 116.41 L 214.50 116.50 L 214.64 121.50 C214.77,126.27 214.75,126.32 214.14,122.50 C213.56,118.86 213.23,118.50 210.50,118.50 ZM 70.50 82.50 C70.50,84.78 70.00,85.57 68.41,85.80 C67.26,85.96 65.72,85.36 64.97,84.46 C63.15,82.28 64.91,79.50 68.11,79.50 C70.10,79.50 70.50,80.00 70.50,82.50 ZM 360.00 122.62 C360.00,124.48 359.55,126.00 359.00,126.00 C358.45,126.00 358.00,123.82 358.00,121.15 C358.00,116.36 358.04,116.30 361.25,116.24 C364.48,116.18 364.48,116.19 362.25,117.71 C360.66,118.79 360.00,120.24 360.00,122.62 ZM 273.00 122.62 C273.00,124.48 272.55,126.00 272.00,126.00 C271.45,126.00 271.00,123.82 271.00,121.17 C271.00,116.40 271.04,116.33 274.19,116.33 C277.32,116.33 277.34,116.36 275.19,117.79 C273.66,118.81 273.00,120.25 273.00,122.62 ZM 42.44 84.09 C41.79,85.15 38.64,85.31 37.67,84.33 C37.30,83.97 37.00,82.84 37.00,81.83 C37.00,80.57 37.74,80.00 39.39,80.00 C41.77,80.00 43.52,82.35 42.44,84.09 ZM 94.19 73.29 C92.32,72.93 92.11,72.57 93.06,71.42 C94.56,69.62 96.43,69.61 97.92,71.40 C98.81,72.48 98.78,72.93 97.79,73.32 C97.08,73.61 98.40,73.88 100.71,73.92 C100.79,73.92 100.86,73.92 100.94,73.92 C99.61,73.98 97.90,74.00 95.66,74.00 C93.65,74.00 91.97,73.96 90.56,73.87 C90.84,73.88 91.14,73.87 91.45,73.86 C94.23,73.79 95.46,73.53 94.19,73.29 ZM 82.00 113.00 C82.00,113.55 81.55,114.00 81.00,114.00 C80.45,114.00 80.00,113.55 80.00,113.00 C80.00,112.45 80.45,112.00 81.00,112.00 C81.55,112.00 82.00,112.45 82.00,113.00 ZM 368.00 113.00 C368.00,113.55 367.55,114.00 367.00,114.00 C366.45,114.00 366.00,113.55 366.00,113.00 C366.00,112.45 366.45,112.00 367.00,112.00 C367.55,112.00 368.00,112.45 368.00,113.00 ZM 47.78 63.75 C46.47,61.55 44.98,59.07 44.02,57.46 C44.63,58.36 45.34,59.51 46.21,61.00 C47.86,63.81 48.99,65.75 49.72,67.14 C49.23,66.22 48.55,65.04 47.78,63.75 ZM 56.31 69.53 C56.75,67.68 58.10,65.08 60.18,61.42 C58.29,64.73 56.95,67.65 56.31,69.53 ZM 74.80 62.03 C72.13,57.08 70.24,54.21 68.47,53.39 C70.25,54.20 72.14,57.06 74.79,62.00 C77.30,66.67 78.31,68.92 78.37,70.42 C78.23,68.91 77.12,66.34 74.80,62.03 ZM 85.30 72.76 C84.35,72.18 84.00,71.36 84.00,70.21 C84.00,71.32 84.43,72.16 85.30,72.76 ZM 106.00 72.01 C105.82,72.34 105.64,72.61 105.40,72.84 C105.63,72.61 105.82,72.33 106.00,72.01 Z" fill="rgb(214,43,72)"/>
<path d="M 69.77 33.81 C69.99,34.47 69.45,35.00 68.58,35.00 C67.71,35.00 67.00,34.29 67.00,33.42 C67.00,31.65 69.15,31.96 69.77,33.81 Z" fill="rgb(246,183,183)"/>
<path d="M 0.00 66.00 L 0.00 0.00 L 215.00 0.00 L 430.00 0.00 L 430.00 66.00 L 430.00 132.00 L 215.00 132.00 L 0.00 132.00 L 0.00 66.00 ZM 171.14 125.09 C172.44,124.03 173.13,122.80 172.68,122.34 C172.22,121.89 171.41,122.30 170.88,123.26 C169.05,126.51 164.00,124.73 164.00,120.84 C164.00,119.86 164.98,118.54 166.18,117.90 C168.04,116.91 168.64,117.07 170.21,119.01 C172.26,121.55 174.05,120.87 172.33,118.20 C171.60,117.07 170.02,116.54 167.62,116.61 C164.45,116.71 164.00,116.43 164.00,114.36 C164.00,113.06 163.55,112.00 163.00,112.00 C162.43,112.00 162.00,114.98 162.00,118.93 C162.00,125.73 162.05,125.88 164.75,126.28 C166.26,126.51 167.79,126.77 168.14,126.85 C168.49,126.93 169.84,126.14 171.14,125.09 ZM 322.78 125.44 C327.31,122.27 324.62,115.39 319.16,116.19 C316.39,116.60 316.00,116.37 316.00,114.33 C316.00,113.05 315.55,112.00 315.00,112.00 C314.43,112.00 314.00,114.98 314.00,118.93 C314.00,125.73 314.05,125.88 316.75,126.28 C318.26,126.51 319.74,126.77 320.03,126.85 C320.32,126.93 321.56,126.30 322.78,125.44 ZM 150.00 122.94 C150.00,121.16 149.58,120.14 149.00,120.50 C148.45,120.84 148.00,122.22 148.00,123.56 C148.00,124.90 148.45,126.00 149.00,126.00 C149.55,126.00 150.00,124.62 150.00,122.94 ZM 210.50 118.50 C213.23,118.50 213.56,118.86 214.14,122.50 C214.75,126.32 214.77,126.27 214.64,121.50 L 214.50 116.50 L 209.66 116.41 L 204.82 116.33 L 205.41 119.29 C205.73,120.92 206.06,123.21 206.14,124.38 C206.22,125.54 206.56,124.70 206.89,122.50 C207.45,118.86 207.77,118.50 210.50,118.50 ZM 259.37 121.25 C259.27,118.64 259.14,115.49 259.09,114.25 C259.04,113.01 258.55,112.00 258.00,112.00 C257.43,112.00 257.00,115.00 257.00,119.00 C257.00,124.01 257.36,126.00 258.28,126.00 C259.16,126.00 259.50,124.53 259.37,121.25 ZM 273.00 122.62 C273.00,120.25 273.66,118.81 275.19,117.79 C277.34,116.36 277.32,116.33 274.19,116.33 C271.04,116.33 271.00,116.40 271.00,121.17 C271.00,123.82 271.45,126.00 272.00,126.00 C272.55,126.00 273.00,124.48 273.00,122.62 ZM 298.18 124.25 C298.86,121.39 297.88,112.00 296.90,112.00 C296.41,112.00 296.00,115.15 296.00,119.00 C296.00,125.47 297.21,128.37 298.18,124.25 ZM 346.31 122.52 C345.88,119.87 346.13,118.89 347.37,118.41 C348.27,118.07 349.00,117.34 349.00,116.79 C349.00,116.24 348.33,116.05 347.50,116.36 C346.42,116.78 346.00,116.25 346.00,114.47 C346.00,113.11 345.55,112.00 345.00,112.00 C344.43,112.00 344.00,115.00 344.00,119.00 C344.00,124.42 344.32,126.00 345.44,126.00 C346.52,126.00 346.73,125.14 346.31,122.52 ZM 360.00 122.62 C360.00,120.24 360.66,118.79 362.25,117.71 C364.48,116.19 364.48,116.18 361.25,116.24 C358.04,116.30 358.00,116.36 358.00,121.15 C358.00,123.82 358.45,126.00 359.00,126.00 C359.55,126.00 360.00,124.48 360.00,122.62 ZM 368.00 121.00 C368.00,118.25 367.55,116.00 367.00,116.00 C366.45,116.00 366.00,118.25 366.00,121.00 C366.00,123.75 366.45,126.00 367.00,126.00 C367.55,126.00 368.00,123.75 368.00,121.00 ZM 385.25 124.15 C385.96,121.43 384.89,112.00 383.87,112.00 C383.39,112.00 383.00,115.15 383.00,119.00 C383.00,125.59 384.17,128.27 385.25,124.15 ZM 39.58 122.00 C41.46,122.00 43.00,121.55 43.00,121.00 C43.00,120.45 41.42,120.00 39.50,120.00 C37.58,120.00 36.00,119.55 36.00,119.00 C36.00,117.23 34.34,117.94 34.25,119.75 C34.13,122.39 35.12,124.79 35.70,123.25 C35.96,122.56 37.70,122.00 39.58,122.00 ZM 228.50 121.00 C228.16,120.45 225.88,120.00 223.44,120.00 C221.00,120.00 219.00,120.45 219.00,121.00 C219.00,121.55 221.28,122.00 224.06,122.00 C227.18,122.00 228.88,121.62 228.50,121.00 ZM 82.00 113.00 C82.00,112.45 81.55,112.00 81.00,112.00 C80.45,112.00 80.00,112.45 80.00,113.00 C80.00,113.55 80.45,114.00 81.00,114.00 C81.55,114.00 82.00,113.55 82.00,113.00 ZM 368.00 113.00 C368.00,112.45 367.55,112.00 367.00,112.00 C366.45,112.00 366.00,112.45 366.00,113.00 C366.00,113.55 366.45,114.00 367.00,114.00 C367.55,114.00 368.00,113.55 368.00,113.00 ZM 61.72 98.38 C65.62,97.33 65.40,94.52 60.77,86.26 C56.90,79.35 56.10,78.50 53.51,78.50 C50.94,78.50 50.07,79.39 46.25,85.87 C43.86,89.92 42.04,93.96 42.21,94.85 C42.38,95.73 43.64,97.02 45.01,97.71 C47.59,99.01 57.82,99.42 61.72,98.38 ZM 90.98 97.02 C93.28,94.72 93.12,94.14 87.68,84.69 C82.42,75.56 80.42,75.68 74.30,85.50 C71.91,89.35 70.07,93.39 70.22,94.47 C70.64,97.44 74.72,98.97 82.25,98.99 C87.65,99.00 89.39,98.61 90.98,97.02 ZM 119.39 97.47 C121.22,95.63 120.60,93.60 115.36,84.19 C112.32,78.75 111.49,77.93 109.31,78.19 C105.94,78.60 97.53,92.00 98.42,95.54 C99.13,98.37 100.42,98.74 110.18,98.88 C115.87,98.97 118.26,98.60 119.39,97.47 ZM 171.00 97.25 C175.67,94.91 178.03,88.73 176.18,83.63 C175.22,80.96 175.21,79.25 176.15,75.74 C177.66,70.10 176.06,65.62 171.58,62.89 C168.88,61.24 166.36,61.01 151.25,61.00 L 134.00 61.00 L 134.00 80.00 L 134.00 99.00 L 150.75 99.00 C164.69,99.00 168.09,98.70 171.00,97.25 ZM 191.80 93.75 L 192.11 89.00 L 199.19 89.00 L 206.27 89.00 L 211.19 94.00 C215.37,98.25 216.68,99.00 219.89,99.00 C221.97,99.00 223.98,98.69 224.36,98.31 C224.73,97.93 223.19,95.73 220.93,93.43 L 216.81 89.23 L 221.00 86.88 C223.31,85.58 225.83,83.30 226.60,81.81 C228.58,77.98 228.34,71.08 226.11,67.42 C222.77,61.93 219.15,61.00 201.10,61.00 L 185.00 61.00 L 185.00 79.33 C185.00,89.42 185.32,97.99 185.71,98.38 C186.10,98.77 187.57,98.96 188.96,98.80 C191.23,98.53 191.53,98.00 191.80,93.75 ZM 245.77 80.25 L 246.05 62.00 L 242.02 62.00 L 238.00 62.00 L 238.00 79.83 C238.00,89.64 238.32,97.99 238.71,98.38 C239.11,98.77 240.79,98.96 242.46,98.80 L 245.50 98.50 L 245.77 80.25 ZM 296.81 95.85 L 297.11 93.20 L 283.81 92.85 C272.15,92.54 270.06,92.22 266.92,90.27 C262.68,87.64 261.00,84.39 261.00,78.82 C261.00,75.44 261.61,74.16 264.54,71.40 L 268.08 68.05 L 282.29 67.78 L 296.50 67.50 L 296.81 64.25 L 297.13 61.00 L 284.31 61.01 C266.20,61.03 264.47,61.44 258.87,67.04 C255.06,70.85 254.03,72.64 253.45,76.47 C252.54,82.58 254.23,88.19 258.32,92.63 C263.21,97.94 267.42,98.97 283.00,98.72 L 296.50 98.50 L 296.81 95.85 ZM 311.82 94.00 C312.14,89.36 313.95,86.63 319.17,82.89 L 321.84 80.98 L 329.49 89.99 C336.72,98.51 337.35,99.00 341.07,99.00 C343.23,99.00 345.00,98.54 345.00,97.99 C345.00,97.43 341.29,92.46 336.75,86.95 C332.21,81.43 328.37,76.54 328.21,76.09 C327.94,75.31 331.72,71.48 340.00,64.16 L 343.50 61.06 L 337.85 61.03 L 332.19 61.00 L 322.64 69.50 C317.39,74.18 312.85,78.00 312.55,78.00 C312.25,78.00 312.00,74.18 312.00,69.50 L 312.00 61.00 L 308.50 61.00 L 305.00 61.00 L 305.00 80.06 L 305.00 99.13 L 308.25 98.81 C311.33,98.52 311.52,98.27 311.82,94.00 ZM 390.84 97.08 C397.61,93.63 399.23,85.07 394.08,79.92 L 391.15 77.00 L 378.30 77.00 C364.66,77.00 361.00,75.96 361.00,72.07 C361.00,68.63 363.35,68.06 378.57,67.78 L 393.50 67.50 L 393.81 64.25 L 394.13 61.00 L 379.03 61.00 C362.73,61.00 358.58,61.91 355.63,66.12 C353.75,68.79 353.51,73.83 355.09,77.29 C357.21,81.95 360.73,83.00 374.21,83.00 C387.84,83.00 390.44,83.84 389.84,88.03 C389.25,92.17 385.80,93.07 371.00,92.93 C353.00,92.77 354.00,92.62 354.00,95.33 C354.00,96.62 354.30,97.97 354.67,98.33 C355.03,98.70 362.48,99.00 371.21,99.00 C384.89,99.00 387.60,98.73 390.84,97.08 ZM 36.05 96.44 C37.12,95.15 36.98,94.13 35.19,90.44 C30.55,80.90 28.09,77.85 25.27,78.19 C23.20,78.43 21.74,80.04 18.32,85.84 C13.69,93.70 13.34,94.94 15.20,96.80 C17.11,98.71 34.42,98.41 36.05,96.44 ZM 98.95 85.56 C102.08,81.79 98.07,76.74 93.58,78.78 C89.14,80.81 90.65,87.00 95.58,87.00 C96.78,87.00 98.29,86.35 98.95,85.56 ZM 70.50 82.50 C70.50,80.00 70.10,79.50 68.11,79.50 C64.91,79.50 63.15,82.28 64.97,84.46 C65.72,85.36 67.26,85.96 68.41,85.80 C70.00,85.57 70.50,84.78 70.50,82.50 ZM 42.44 84.09 C43.52,82.35 41.77,80.00 39.39,80.00 C37.74,80.00 37.00,80.57 37.00,81.83 C37.00,82.84 37.30,83.97 37.67,84.33 C38.64,85.31 41.79,85.15 42.44,84.09 ZM 50.30 71.89 C51.46,70.04 51.37,69.81 46.21,61.00 C42.92,55.39 42.01,54.50 39.52,54.50 C37.02,54.50 36.07,55.45 32.20,61.83 C28.31,68.25 27.89,69.47 28.87,71.62 C29.96,74.01 30.24,74.07 39.64,73.79 C47.22,73.56 49.51,73.15 50.30,71.89 ZM 78.00 71.99 C78.89,70.34 78.31,68.56 74.79,62.00 C68.53,50.34 66.52,50.26 60.18,61.42 C53.65,72.88 54.32,74.00 67.66,74.00 C75.92,74.00 77.05,73.78 78.00,71.99 ZM 106.00 72.01 C106.87,70.38 106.31,68.66 102.99,62.60 C97.83,53.20 96.77,52.26 93.62,54.33 C91.15,55.95 84.00,67.76 84.00,70.21 C84.00,73.22 86.42,74.00 95.66,74.00 C103.89,74.00 105.05,73.78 106.00,72.01 ZM 84.50 58.50 C84.50,56.00 84.10,55.50 82.11,55.50 C78.91,55.50 77.15,58.28 78.97,60.46 C79.72,61.36 81.26,61.96 82.41,61.80 C84.00,61.57 84.50,60.78 84.50,58.50 ZM 56.00 57.38 C56.00,56.57 54.96,56.00 53.50,56.00 C51.70,56.00 51.00,56.54 51.00,57.92 C51.00,58.97 51.56,60.04 52.25,60.28 C53.84,60.85 56.00,59.18 56.00,57.38 ZM 140.78 40.25 C140.99,30.47 141.39,27.00 142.31,27.00 C143.00,27.00 146.46,29.92 150.00,33.50 C153.54,37.08 156.91,39.98 157.47,39.96 C158.04,39.94 161.58,37.02 165.35,33.46 C169.11,29.91 172.59,27.00 173.07,27.00 C173.55,27.00 174.07,32.96 174.22,40.25 L 174.50 53.50 L 177.75 53.81 L 181.00 54.13 L 181.00 35.31 L 180.99 16.50 L 176.89 16.45 C173.16,16.40 172.10,17.03 165.38,23.31 C156.95,31.18 158.50,31.33 148.23,21.69 C144.10,17.81 141.43,16.00 140.40,16.40 C139.54,16.73 137.75,17.00 136.42,17.00 L 134.00 17.00 L 134.00 35.56 L 134.00 54.13 L 137.25 53.81 L 140.50 53.50 L 140.78 40.25 ZM 199.81 49.25 L 202.15 45.00 L 213.85 45.00 L 225.54 45.00 L 228.02 49.54 C230.31,53.74 230.77,54.07 234.00,53.79 C236.48,53.59 237.43,53.05 237.26,51.97 C237.01,50.43 220.36,18.12 219.11,16.77 C218.74,16.37 216.09,16.32 213.23,16.66 L 208.01 17.28 L 199.00 34.54 C194.05,44.04 190.00,52.33 190.00,52.97 C190.00,53.69 191.40,54.00 193.74,53.81 C196.97,53.54 197.79,52.93 199.81,49.25 ZM 263.00 38.50 L 263.00 23.00 L 272.00 23.00 L 281.00 23.00 L 281.00 20.00 L 281.00 17.00 L 272.50 16.88 C267.83,16.81 262.42,16.75 260.50,16.75 C258.58,16.75 252.73,16.81 247.50,16.88 L 238.00 17.00 L 238.00 20.00 L 238.00 23.00 L 247.00 23.00 L 256.00 23.00 L 256.00 38.50 L 256.00 54.00 L 259.50 54.00 L 263.00 54.00 L 263.00 38.50 ZM 296.39 52.42 C296.73,51.55 297.00,49.30 297.00,47.42 L 297.00 44.00 L 303.79 44.00 L 310.58 44.00 L 315.50 49.00 C319.61,53.17 321.02,54.00 324.05,54.00 C326.04,54.00 327.98,53.69 328.36,53.31 C328.73,52.93 327.21,50.75 324.96,48.46 L 320.87 44.30 L 324.00 43.00 C334.73,38.56 335.13,21.63 324.60,17.58 C322.04,16.59 306.96,16.32 290.25,16.95 C289.30,16.99 289.00,21.39 289.00,35.50 L 289.00 54.00 L 292.39 54.00 C294.56,54.00 296.00,53.43 296.39,52.42 ZM 349.77 35.25 L 350.05 17.00 L 346.52 17.00 L 343.00 17.00 L 343.00 35.56 L 343.00 54.13 L 346.25 53.81 L 349.50 53.50 L 349.77 35.25 ZM 371.56 48.25 C374.12,45.09 376.57,42.37 377.00,42.20 C377.43,42.04 380.15,44.63 383.04,47.95 C387.77,53.39 388.69,54.00 392.15,54.00 C394.27,54.00 396.00,53.62 396.00,53.16 C396.00,52.70 393.08,48.61 389.50,44.08 C385.92,39.54 383.00,35.43 383.00,34.94 C383.00,34.45 385.92,30.43 389.50,26.00 C393.08,21.57 396.00,17.55 396.00,17.07 C396.00,15.57 387.58,17.11 386.00,18.90 C385.17,19.84 382.86,22.51 380.86,24.85 L 377.22 29.11 L 372.54 23.16 C367.90,17.25 365.01,15.66 360.90,16.74 C359.86,17.01 359.00,17.52 359.01,17.87 C359.02,18.21 361.94,21.96 365.51,26.19 C369.08,30.42 372.00,34.39 372.00,35.00 C372.00,35.61 369.26,39.35 365.92,43.31 C357.07,53.78 357.00,54.00 362.41,54.00 C366.66,54.00 367.13,53.70 371.56,48.25 ZM 63.80 49.80 C65.83,47.77 65.17,45.06 60.80,37.38 C57.71,31.95 56.06,30.00 54.55,30.02 C51.56,30.04 50.87,30.76 46.18,38.74 C42.75,44.57 42.12,46.36 42.95,47.90 C43.51,48.96 44.54,50.05 45.24,50.33 C47.91,51.41 62.61,50.99 63.80,49.80 ZM 91.80 49.80 C93.85,47.75 93.14,44.60 89.13,37.97 C82.59,27.15 80.98,27.31 74.07,39.49 L 69.64 47.29 L 71.93 49.14 C73.75,50.61 75.92,51.00 82.41,51.00 C87.45,51.00 91.06,50.54 91.80,49.80 ZM 69.77 33.81 C69.15,31.96 67.00,31.65 67.00,33.42 C67.00,34.29 67.71,35.00 68.58,35.00 C69.45,35.00 69.99,34.47 69.77,33.81 ZM 77.75 25.45 C80.07,24.74 79.02,20.31 74.84,13.08 C71.21,6.81 70.36,5.94 68.11,6.20 C66.14,6.43 64.54,8.13 61.24,13.50 C58.54,17.88 57.04,21.43 57.22,23.00 C57.48,25.29 58.01,25.54 63.50,26.03 C69.19,26.53 74.99,26.29 77.75,25.45 ZM 317.24 123.84 C315.36,121.96 315.75,119.20 318.06,117.97 C320.83,116.48 323.20,118.46 322.80,121.91 C322.46,124.81 319.30,125.90 317.24,123.84 ZM 143.25 92.29 C141.37,91.93 141.00,91.21 141.00,87.93 L 141.00 84.00 L 154.45 84.00 C165.88,84.00 168.04,84.25 168.82,85.64 C170.28,88.26 169.05,90.79 165.75,91.94 C162.82,92.96 147.92,93.19 143.25,92.29 ZM 141.67 76.33 C141.30,75.97 141.00,73.94 141.00,71.83 L 141.00 68.00 L 154.46 68.00 C166.91,68.00 168.01,68.15 169.00,70.00 C170.24,72.31 169.00,75.40 166.45,76.38 C164.27,77.22 142.51,77.17 141.67,76.33 ZM 192.67 82.33 C192.30,81.97 192.00,78.59 192.00,74.83 L 192.00 68.00 L 204.94 68.00 C217.18,68.00 217.97,68.12 219.44,70.22 C221.34,72.93 221.45,77.00 219.69,79.41 C218.97,80.39 216.38,81.58 213.94,82.06 C208.63,83.08 193.61,83.28 192.67,82.33 ZM 207.37 35.67 C208.15,32.55 212.97,24.00 213.95,24.00 C215.18,24.00 221.18,35.90 220.50,37.00 C220.16,37.55 216.93,38.00 213.33,38.00 C206.97,38.00 206.80,37.93 207.37,35.67 ZM 298.25 37.34 C297.42,37.00 297.00,34.51 297.00,29.92 L 297.00 23.00 L 309.43 23.00 C321.75,23.00 321.87,23.02 323.98,25.71 C326.63,29.07 326.00,32.60 322.21,35.75 C319.78,37.76 318.45,37.98 309.50,37.92 C304.00,37.88 298.94,37.62 298.25,37.34 Z" fill="rgb(253,252,252)"/>
</g>
</svg>